<?xml version="1.0" encoding="UTF-8" standalone="no"?>
<!-- Created with Inkscape (http://www.inkscape.org/) -->

<svg
   width="120"
   height="120"
   viewBox="0 0 120 120"
   version="1.1"
   id="svg1"
   inkscape:version="1.4 (e7c3feb100, 2024-10-09)"
   sodipodi:docname="favicon.svg"
   inkscape:export-filename="favicon.png"
   inkscape:export-xdpi="96"
   inkscape:export-ydpi="96"
   xmlns:inkscape="http://www.inkscape.org/namespaces/inkscape"
   xmlns:sodipodi="http://sodipodi.sourceforge.net/DTD/sodipodi-0.dtd"
   xmlns="http://www.w3.org/2000/svg"
   xmlns:svg="http://www.w3.org/2000/svg">
  <sodipodi:namedview
     id="namedview1"
     pagecolor="#ffffff"
     bordercolor="#000000"
     borderopacity="0.25"
     inkscape:showpageshadow="2"
     inkscape:pageopacity="0.0"
     inkscape:pagecheckerboard="0"
     inkscape:deskcolor="#d1d1d1"
     inkscape:document-units="px"
     inkscape:zoom="4.5379108"
     inkscape:cx="67.652278"
     inkscape:cy="58.176552"
     inkscape:window-width="1920"
     inkscape:window-height="1131"
     inkscape:window-x="0"
     inkscape:window-y="0"
     inkscape:window-maximized="1"
     inkscape:current-layer="layer1" />
  <defs
     id="defs1" />
  <g
     inkscape:label="Layer 1"
     inkscape:groupmode="layer"
     id="layer1">
    <path
       id="path1"
       style="fill:#2b0000;fill-opacity:1;stroke-width:0.924759"
       d="M 59.986328 5.9941406 A 54.169168 54.169168 0 0 0 52.357422 6.5390625 A 54.169168 54.169168 0 0 0 28.953125 15.900391 A 54.169168 54.169168 0 0 0 5.8183594 60.162109 A 54.169168 54.169168 0 0 0 59.986328 114.33008 A 54.169168 54.169168 0 0 0 111.1543 77.580078 A 54.169168 54.169168 0 0 0 114.1543 60.162109 A 54.169168 54.169168 0 0 0 113.46875 51.640625 A 54.169168 54.169168 0 0 0 104.52539 29.353516 A 54.169168 54.169168 0 0 0 93.582031 17.6875 A 54.169168 54.169168 0 0 0 75.027344 8.1367188 A 54.169168 54.169168 0 0 0 59.986328 5.9941406 z " />
    <path
       id="path1-3"
       style="fill:#460000;fill-opacity:1;stroke-width:0.924759"
       d="M 60.078125 4.2636719 A 54.169168 54.169168 0 0 0 52.447266 4.8105469 A 54.169168 54.169168 0 0 0 29.042969 14.171875 A 54.169168 54.169168 0 0 0 5.9082031 58.433594 A 54.169168 54.169168 0 0 0 60.078125 112.60156 A 54.169168 54.169168 0 0 0 111.24609 75.851562 A 54.169168 54.169168 0 0 0 114.24609 58.433594 A 54.169168 54.169168 0 0 0 113.56055 49.912109 A 54.169168 54.169168 0 0 0 104.61523 27.625 A 54.169168 54.169168 0 0 0 93.673828 15.958984 A 54.169168 54.169168 0 0 0 75.119141 6.4082031 A 54.169168 54.169168 0 0 0 60.078125 4.2636719 z " />
    <path
       d="M 72.549848,22.364226 53.448677,41.602488 q 3.838513,4.889534 3.838513,10.921483 0,6.900184 -5.118018,11.926808 -5.07232,4.980928 -12.018201,4.980928 -7.08297,0 -12.018201,-4.980928 -4.935231,-4.980928 -4.935231,-12.063898 0,-7.128667 4.935231,-12.063898 4.980927,-4.980927 12.109594,-4.980927 4.798141,0 8.636654,2.284829 L 68.345763,18.205837 Z m 21.79727,41.538194 q 0,7.174363 -4.935231,12.155291 -4.935231,4.980927 -12.109594,4.980927 -4.798141,0 -8.636654,-2.330525 L 49.244591,98.174857 45.040505,93.970771 64.141677,74.778207 q -3.88421,-4.798142 -3.88421,-10.875787 0,-6.900184 5.118018,-11.926808 5.118017,-5.026624 12.018201,-5.026624 6.991577,0 11.972505,4.980927 4.980927,4.980928 4.980927,11.972505 z m -5.940556,0.182786 q 0,-4.615355 -3.244457,-7.905508 -3.244457,-3.335851 -7.859812,-3.335851 -4.569658,0 -7.859812,3.290154 -3.290154,3.290154 -3.290154,7.859812 0,4.615355 3.290154,7.859812 3.33585,3.244458 7.951205,3.244458 4.523962,0 7.768419,-3.244458 3.244457,-3.244457 3.244457,-7.768419 z M 51.300937,52.386881 q 0,-4.661051 -3.244457,-7.905509 -3.244457,-3.244457 -7.905509,-3.244457 -4.615355,0 -7.859812,3.290154 -3.244457,3.244457 -3.244457,7.859812 0,4.615355 3.290153,7.859812 3.290154,3.244458 7.905509,3.244458 4.432569,0 7.722723,-3.335851 3.33585,-3.33585 3.33585,-7.768419 z"
       id="text4-9"
       style="font-size:93.5866px;fill:#f9f9f9;stroke-width:7.79886"
       aria-label="ðŸ° " />
  </g>
</svg>
