<?xml version="1.0" encoding="UTF-8" standalone="no"?>
<svg
   height="32"
   width="32"
   version="1.1"
   id="svg13"
   sodipodi:docname="icon-dusk.svg"
   inkscape:version="1.4 (e7c3feb100, 2024-10-09)"
   inkscape:export-filename="icon-dusk.png"
   inkscape:export-xdpi="768"
   inkscape:export-ydpi="768"
   xmlns:inkscape="http://www.inkscape.org/namespaces/inkscape"
   xmlns:sodipodi="http://sodipodi.sourceforge.net/DTD/sodipodi-0.dtd"
   xmlns:xlink="http://www.w3.org/1999/xlink"
   xmlns="http://www.w3.org/2000/svg"
   xmlns:svg="http://www.w3.org/2000/svg">
  <defs
     id="defs13" />
  <sodipodi:namedview
     id="namedview13"
     pagecolor="#ffffff"
     bordercolor="#000000"
     borderopacity="0.25"
     inkscape:showpageshadow="2"
     inkscape:pageopacity="0.0"
     inkscape:pagecheckerboard="0"
     inkscape:deskcolor="#d1d1d1"
     inkscape:zoom="4.9648085"
     inkscape:cx="47.333145"
     inkscape:cy="3.8269351"
     inkscape:window-width="1536"
     inkscape:window-height="891"
     inkscape:window-x="0"
     inkscape:window-y="0"
     inkscape:window-maximized="1"
     inkscape:current-layer="svg13" />
  <linearGradient
     id="b"
     gradientTransform="matrix(.7 0 0 .7 -.7 -1.1)"
     gradientUnits="userSpaceOnUse"
     x2="0"
     y1="44"
     y2="4">
    <stop
       offset="0"
       stop-color="#1d1e1e"
       id="stop1"
       style="stop-color:#8f3232;stop-opacity:1;" />
    <stop
       offset="1"
       stop-color="#44484c"
       id="stop2"
       style="stop-color:#e5d4d4;stop-opacity:1;" />
  </linearGradient>
  <linearGradient
     id="c"
     x1="6"
     x2="6"
     xlink:href="#a"
     y1="5"
     y2="4" />
  <linearGradient
     id="a"
     gradientUnits="userSpaceOnUse"
     x2="0"
     y1="507.8"
     y2="506.8">
    <stop
       offset="0"
       stop-color="#3da103"
       id="stop3" />
    <stop
       offset="1"
       stop-color="#7ddf07"
       id="stop4" />
  </linearGradient>
  <linearGradient
     id="d"
     x1="6"
     x2="6"
     xlink:href="#a"
     y1="16"
     y2="15" />
  <linearGradient
     id="e"
     x1="6"
     x2="6"
     xlink:href="#a"
     y1="27"
     y2="26" />
  <linearGradient
     id="f"
     gradientUnits="userSpaceOnUse"
     x1="5"
     x2="18"
     y1="12"
     y2="25">
    <stop
       offset="0"
       stop-color="#292c2f"
       id="stop5" />
    <stop
       offset="1"
       stop-opacity="0"
       id="stop6" />
  </linearGradient>
  <path
     d="M3 7h26v17H3z"
     fill="#111213"
     id="path6" />
  <rect
     fill="#eff0f1"
     height="26.124567"
     rx="3.2655709"
     width="26.124567"
     x="2.9618914"
     y="3.8025966"
     id="rect12"
     style="stroke-width:1.63279;fill:#b3b3b3" />
  <rect
     fill="#eff0f1"
     height="26.852953"
     rx="3.2928853"
     width="26.343082"
     x="2.8420765"
     y="2.1804061"
     id="rect12-3"
     style="stroke-width:1.6623" />
  <path
     d="m 19.29805,6.66111 -4.76255,4.796732 q 0.957071,1.219124 0.957071,2.723088 0,1.720441 -1.276094,2.973744 -1.264693,1.241912 -2.996535,1.241912 -1.7660163,0 -2.9965323,-1.241912 -1.2305182,-1.241909 -1.2305182,-3.007927 0,-1.777411 1.2305182,-3.007927 1.241908,-1.2419094 3.0193213,-1.2419094 1.196332,0 2.1534,0.5696824 l 4.853698,-4.8423049 z m 5.43478,10.356842 q 0,1.788804 -1.230521,3.030714 -1.230511,1.241909 -3.019319,1.241909 -1.196334,0 -2.153402,-0.581079 l -4.842305,4.853698 -1.04822,-1.048215 4.762554,-4.785337 q -0.968459,-1.196335 -0.968459,-2.71169 0,-1.720444 1.276084,-2.973747 1.276092,-1.253305 2.996535,-1.253305 1.74323,0 2.985138,1.24191 1.241915,1.24191 1.241915,2.985142 z m -1.481178,0.04559 q 0,-1.15076 -0.808954,-1.971104 -0.808945,-0.831737 -1.959708,-0.831737 -1.139368,0 -1.95971,0.820344 -0.820339,0.820344 -0.820339,1.95971 0,1.150759 0.820339,1.959711 0.831736,0.808949 1.982497,0.808949 1.127976,0 1.936921,-0.808949 0.808954,-0.808952 0.808954,-1.936924 z M 13.999994,14.14676 q 0,-1.162154 -0.808945,-1.971105 -0.808954,-0.808949 -1.971107,-0.808949 -1.150759,0 -1.9597083,0.820344 -0.808949,0.808951 -0.808949,1.95971 0,1.150761 0.820342,1.95971 0.8203433,0.80895 1.9711043,0.80895 1.105183,0 1.925526,-0.831739 0.831737,-0.831736 0.831737,-1.936921 z"
     id="text4-9-7"
     style="font-size:93.5866px;fill:#a50000;fill-opacity:1;stroke-width:1.9445"
     aria-label="ðŸ° " />
</svg>
