<?xml version="1.0" encoding="UTF-8" standalone="no"?>
<svg
   height="128px"
   viewBox="0 0 128 128"
   width="128px"
   version="1.1"
   id="svg8"
   sodipodi:docname="icon-files.svg"
   inkscape:version="1.4 (e7c3feb100, 2024-10-09)"
   inkscape:export-filename="icon-files.png"
   inkscape:export-xdpi="96"
   inkscape:export-ydpi="96"
   xmlns:inkscape="http://www.inkscape.org/namespaces/inkscape"
   xmlns:sodipodi="http://sodipodi.sourceforge.net/DTD/sodipodi-0.dtd"
   xmlns="http://www.w3.org/2000/svg"
   xmlns:svg="http://www.w3.org/2000/svg">
  <defs
     id="defs8" />
  <sodipodi:namedview
     id="namedview8"
     pagecolor="#ffffff"
     bordercolor="#000000"
     borderopacity="0.25"
     inkscape:showpageshadow="2"
     inkscape:pageopacity="0.0"
     inkscape:pagecheckerboard="0"
     inkscape:deskcolor="#d1d1d1"
     showguides="true"
     inkscape:zoom="3.5052816"
     inkscape:cx="49.639378"
     inkscape:cy="55.345054"
     inkscape:window-width="1536"
     inkscape:window-height="891"
     inkscape:window-x="0"
     inkscape:window-y="0"
     inkscape:window-maximized="1"
     inkscape:current-layer="svg8">
    <sodipodi:guide
       position="22.087774,96.026646"
       orientation="0,-1"
       id="guide8"
       inkscape:locked="false" />
    <sodipodi:guide
       position="40.937304,11.853448"
       orientation="0,-1"
       id="guide9"
       inkscape:locked="false" />
    <sodipodi:guide
       position="7.838558,54.107367"
       orientation="0,-1"
       id="guide10"
       inkscape:locked="false" />
  </sodipodi:namedview>
  <linearGradient
     id="a"
     gradientTransform="matrix(0.45451 0 0 0.455522 -1210.292114 616.172607)"
     gradientUnits="userSpaceOnUse"
     x1="2689.251953"
     x2="2918.069824"
     y1="-1106.802979"
     y2="-1106.802979">
    <stop
       offset="0"
       stop-color="#62a0ea"
       id="stop1"
       style="stop-color:#460000;stop-opacity:1;" />
    <stop
       offset="0.0576991"
       stop-color="#afd4ff"
       id="stop2"
       style="stop-color:#ffadad;stop-opacity:1;" />
    <stop
       offset="0.122204"
       stop-color="#62a0ea"
       id="stop3"
       style="stop-color:#460000;stop-opacity:1;" />
    <stop
       offset="0.87330598"
       stop-color="#62a0ea"
       id="stop4"
       style="stop-color:#460000;stop-opacity:1;" />
    <stop
       offset="0.95599699"
       stop-color="#c0d5ea"
       id="stop5"
       style="stop-color:#ffaeae;stop-opacity:1;" />
    <stop
       offset="1"
       stop-color="#62a0ea"
       id="stop6"
       style="stop-color:#460000;stop-opacity:1;" />
  </linearGradient>
  <path
     d="m 21.976562 12 c -5.527343 0 -9.976562 4.460938 -9.976562 10 v 86.03125 c 0 5.542969 4.449219 10 9.976562 10 h 84.042969 c 5.53125 0 9.980469 -4.457031 9.980469 -10 v -72.085938 c 0 -6.628906 -5.359375 -12 -11.972656 -12 h -46.027344 c -2.453125 0 -4.695312 -1.386718 -5.796875 -3.582031 l -1.503906 -2.992187 c -1.65625 -3.292969 -5.019531 -5.371094 -8.699219 -5.371094 z m 0 0"
     fill="#438de6"
     id="path6"
     style="fill:#800000;fill-opacity:1" />
  <path
     d="m 65.976562 36 c -2.746093 0 -5.226562 1.101562 -7.027343 2.890625 c -2.273438 2.253906 -5.382813 5.109375 -8.632813 5.109375 h -28.339844 c -5.527343 0 -9.976562 4.460938 -9.976562 10 v 54.03125 c 0 5.542969 4.449219 10 9.976562 10 h 84.042969 c 5.53125 0 9.980469 -4.457031 9.980469 -10 v -62.03125 c 0 -5.539062 -4.449219 -10 -9.980469 -10 z m 0 0"
     fill="url(#a)"
     id="path7" />
  <path
     d="m 65.976562 32 c -2.746093 0 -5.226562 1.101562 -7.027343 2.890625 c -2.273438 2.253906 -5.382813 5.109375 -8.632813 5.109375 h -28.339844 c -5.527343 0 -9.976562 4.460938 -9.976562 10 v 55.976562 c 0 5.539063 4.449219 10 9.976562 10 h 84.042969 c 5.53125 0 9.980469 -4.460937 9.980469 -10 v -63.976562 c 0 -5.539062 -4.449219 -10 -9.980469 -10 z m 0 0"
     fill="#a4caee"
     id="path8"
     style="fill:#f2f2f2;fill-opacity:1" />
  <path
     d="M 74.936805,46.241569 60.208998,61.075085 q 2.959663,3.770044 2.959663,8.420932 0,5.320331 -3.946214,9.196075 -3.910965,3.840506 -9.266545,3.840506 -5.461266,0 -9.266543,-3.840506 -3.805273,-3.84051 -3.805273,-9.30178 0,-5.496503 3.805273,-9.301777 3.840505,-3.840507 9.337011,-3.840507 3.699562,0 6.659221,1.761701 L 71.695269,43.035282 Z m 16.806626,32.027714 q 0,5.531736 -3.805286,9.372244 -3.805256,3.840506 -9.337,3.840506 -3.699571,0 -6.659231,-1.796935 L 56.967469,104.69477 53.725932,101.45325 68.453758,86.654974 q -2.994889,-3.699572 -2.994889,-8.385691 0,-5.320335 3.946192,-9.196076 3.946216,-3.875743 9.266545,-3.875743 5.390807,0 9.231306,3.840508 3.840519,3.840508 3.840519,9.231311 z m -4.580424,0.140949 q 0,-3.558632 -2.501623,-6.095483 -2.501604,-2.572079 -6.060239,-2.572079 -3.523407,0 -6.060255,2.536848 -2.536831,2.536847 -2.536831,6.060245 0,3.558635 2.536831,6.060251 2.57208,2.501611 6.130716,2.501611 3.488174,0 5.989778,-2.501611 2.501623,-2.501616 2.501623,-5.989782 z M 58.552991,69.390314 q 0,-3.593869 -2.5016,-6.095483 -2.501627,-2.501614 -6.095489,-2.501614 -3.558635,0 -6.060246,2.536849 -2.501614,2.501616 -2.501614,6.060248 0,3.558638 2.536844,6.06025 2.536847,2.501616 6.095484,2.501616 3.417693,0 5.954539,-2.572086 2.572082,-2.57208 2.572082,-5.98978 z"
     id="text4-9-7"
     style="font-size:93.5866px;fill:#800000;fill-opacity:1;stroke-width:6.01323"
     aria-label="ðŸ° " />
</svg>
