<?xml version="1.0" encoding="UTF-8" standalone="no"?>
<svg
   height="32"
   width="32"
   version="1.1"
   id="svg13"
   sodipodi:docname="icon-dusk.svg"
   inkscape:version="1.4 (e7c3feb100, 2024-10-09)"
   inkscape:export-filename="icon-dusk.png"
   inkscape:export-xdpi="96"
   inkscape:export-ydpi="96"
   xmlns:inkscape="http://www.inkscape.org/namespaces/inkscape"
   xmlns:sodipodi="http://sodipodi.sourceforge.net/DTD/sodipodi-0.dtd"
   xmlns:xlink="http://www.w3.org/1999/xlink"
   xmlns="http://www.w3.org/2000/svg"
   xmlns:svg="http://www.w3.org/2000/svg">
  <defs
     id="defs13" />
  <sodipodi:namedview
     id="namedview13"
     pagecolor="#ffffff"
     bordercolor="#000000"
     borderopacity="0.25"
     inkscape:showpageshadow="2"
     inkscape:pageopacity="0.0"
     inkscape:pagecheckerboard="0"
     inkscape:deskcolor="#d1d1d1"
     inkscape:zoom="13.728984"
     inkscape:cx="17.772619"
     inkscape:cy="16.060912"
     inkscape:window-width="1254"
     inkscape:window-height="652"
     inkscape:window-x="26"
     inkscape:window-y="23"
     inkscape:window-maximized="0"
     inkscape:current-layer="svg13" />
  <linearGradient
     id="b"
     gradientTransform="matrix(.7 0 0 .7 -.7 -1.1)"
     gradientUnits="userSpaceOnUse"
     x2="0"
     y1="44"
     y2="4">
    <stop
       offset="0"
       stop-color="#1d1e1e"
       id="stop1" />
    <stop
       offset="1"
       stop-color="#44484c"
       id="stop2"
       style="stop-color:#800000;stop-opacity:1;" />
  </linearGradient>
  <linearGradient
     id="c"
     x1="6"
     x2="6"
     xlink:href="#a"
     y1="5"
     y2="4" />
  <linearGradient
     id="a"
     gradientUnits="userSpaceOnUse"
     x2="0"
     y1="507.8"
     y2="506.8">
    <stop
       offset="0"
       stop-color="#3da103"
       id="stop3" />
    <stop
       offset="1"
       stop-color="#7ddf07"
       id="stop4" />
  </linearGradient>
  <linearGradient
     id="d"
     x1="6"
     x2="6"
     xlink:href="#a"
     y1="16"
     y2="15" />
  <linearGradient
     id="e"
     x1="6"
     x2="6"
     xlink:href="#a"
     y1="27"
     y2="26" />
  <linearGradient
     id="f"
     gradientUnits="userSpaceOnUse"
     x1="5"
     x2="18"
     y1="12"
     y2="25">
    <stop
       offset="0"
       stop-color="#292c2f"
       id="stop5" />
    <stop
       offset="1"
       stop-opacity="0"
       id="stop6" />
  </linearGradient>
  <path
     d="M3 7h26v17H3z"
     fill="#111213"
     id="path6" />
  <path
     d="M3 2v28h26V2zm1 6h24v4H4zm0 11h24v4H4z"
     fill="url(#b)"
     id="path7" />
  <path
     d="M3 29h26v1H3z"
     opacity=".2"
     id="path8" />
  <g
     stroke-width=".7"
     id="g11">
    <path
       d="M5 4h2v1H5z"
       fill="url(#c)"
       id="path9" />
    <path
       d="M5 15h2v1H5z"
       fill="url(#d)"
       id="path10" />
    <path
       d="M5 26h2v1H5z"
       fill="url(#e)"
       id="path11" />
  </g>
  <path
     d="M4 12l7 7h17v4H15l7 7h7V13l-1-1z"
     fill="url(#f)"
     fill-rule="evenodd"
     opacity=".4"
     id="path12" />
  <rect
     fill="#eff0f1"
     height="16"
     rx="2"
     width="16"
     x="16"
     y="14"
     id="rect12" />
  <path
     d="m 26.096523,16.484888 -2.916825,2.93776 q 0.586158,0.746653 0.586158,1.667756 0,1.053685 -0.781544,1.821271 -0.774562,0.760609 -1.835229,0.760609 -1.081597,0 -1.835227,-0.760609 -0.753631,-0.760608 -0.753631,-1.842206 0,-1.088576 0.753631,-1.842206 0.760607,-0.760608 1.849184,-0.760608 0.732694,0 1.318851,0.348903 l 2.972649,-2.965672 z m 3.328533,6.343051 q 0,1.095554 -0.753633,1.856162 -0.753627,0.760608 -1.849183,0.760608 -0.732695,0 -1.318852,-0.355882 l -2.965671,2.972649 -0.641983,-0.64198 2.916828,-2.930781 q -0.593133,-0.732696 -0.593133,-1.660776 0,-1.053686 0.781538,-1.821272 0.781543,-0.767587 1.835229,-0.767587 1.067642,0 1.828249,0.760608 0.760611,0.760608 0.760611,1.828251 z m -0.907148,0.02792 q 0,-0.704783 -0.495444,-1.207203 -0.495439,-0.509398 -1.200224,-0.509398 -0.697806,0 -1.200225,0.50242 -0.502417,0.50242 -0.502417,1.200225 0,0.704783 0.502417,1.200226 0.509397,0.495441 1.214181,0.495441 0.690829,0 1.186268,-0.495441 0.495444,-0.495443 0.495444,-1.18627 z m -5.666181,-1.786384 q 0,-0.711762 -0.495439,-1.207204 -0.495444,-0.495441 -1.207205,-0.495441 -0.704783,0 -1.200224,0.50242 -0.495441,0.495442 -0.495441,1.200225 0,0.704784 0.502419,1.200225 0.502419,0.495442 1.207203,0.495442 0.67687,0 1.179289,-0.509399 0.509398,-0.509397 0.509398,-1.186268 z"
     id="text4-9-7"
     style="font-size:93.5866px;fill:#460000;fill-opacity:1;stroke-width:1.19091"
     aria-label="ðŸ° " />
</svg>
